<svg xmlns="http://www.w3.org/2000/svg" xmlns:xlink="http://www.w3.org/1999/xlink"><defs><clipPath id="a"><path fill="#fff" transform="translate(0 .32)" d="M0 0h20v20.069H0z"/></clipPath><clipPath id="a"><path fill="#fff" transform="translate(0 .32)" d="M0 0h20v20.069H0z"/></clipPath><clipPath id="clip0_2403_1829"><path fill="#fff" d="M0 0h20v20H0z"/></clipPath></defs><symbol id="arrow"><path stroke="#000" stroke-width="2" d="M0 6h18"/><path d="M24 6l-6.75 5.196V.804L24 6z" fill="#000"/></symbol><symbol id="burger-menu"><path stroke="#000" stroke-width="1.5" d="M0 1.25h24M0 9.25h24M0 17.25h24"/></symbol><symbol id="email-error"><path stroke="#FF8282" stroke-width="1.3" d="M.65 6v8M17.65 6v8M0 13.35h18M0 1.35h18M17.35 3.182L9 9.677.65 3.182V1.65h16.7v1.532z"/></symbol><symbol id="email-focus"><path stroke="#68B738" stroke-width="1.3" d="M1.111 6v8M18.111 6v8M.461 13.35h18M.461 1.35h18M17.811 3.182l-8.35 6.495-8.35-6.495V1.65h16.7v1.532z"/><path stroke="#fff" d="M.961 1.5h16.782v12H.961z"/></symbol><symbol id="email-icon"><path stroke="#222" stroke-width="1.3" d="M.65 5.848v8M17.65 5.848v8M0 13.198h18M0 1.198h18M17.35 3.03L9 9.524.65 3.03V1.498h16.7V3.03z"/></symbol><symbol id="long-arrow"><path stroke="#000" stroke-width="2" d="M0 6h26"/><path d="M32 6l-6.75 5.196V.804L32 6z" fill="#000"/></symbol><symbol id="phone-error"><g clip-path="url(#a)" fill="#ff8282"><path d="M17.9 9.753H9.4v1.204h8.5l-2.1 2.107.9.903 3.1-3.11a.754.754 0 000-.904l-3.1-3.11-.9.903 2.1 2.007zM8.1 19.787v-6.221a.653.653 0 00-.6-.602H3.1a1.226 1.226 0 001.2 1.204h2.5v5.017H3.1a1.784 1.784 0 01-1.728-1.02 1.801 1.801 0 01-.172-.686V3.431a1.78 1.78 0 01.483-1.25A1.767 1.767 0 012.9 1.624h3.9v5.017H4.4a1.218 1.218 0 00-1.2 1.204h4.4a.649.649 0 00.6-.602V.923A.863.863 0 007.5.32H3.1a2.99 2.99 0 00-2.151.81A3.01 3.01 0 000 3.23v13.948a2.91 2.91 0 00.772 2.192 2.89 2.89 0 002.128.919h4.6a.499.499 0 00.6-.502z"/></g></symbol><symbol id="phone-focus"><g clip-path="url(#a)" fill="#68b738"><path d="M17.9 9.753H9.4v1.204h8.5l-2.1 2.107.9.903 3.1-3.11a.754.754 0 000-.904l-3.1-3.11-.9.903 2.1 2.007zM8.1 19.787v-6.221a.653.653 0 00-.6-.602H3.1a1.226 1.226 0 001.2 1.204h2.5v5.017H3.1a1.784 1.784 0 01-1.728-1.02 1.801 1.801 0 01-.172-.686V3.431a1.78 1.78 0 01.483-1.25A1.767 1.767 0 012.9 1.624h3.9v5.017H4.4a1.218 1.218 0 00-1.2 1.204h4.4a.649.649 0 00.6-.602V.923A.863.863 0 007.5.32H3.1a2.99 2.99 0 00-2.151.81A3.01 3.01 0 000 3.23v13.948a2.91 2.91 0 00.772 2.192 2.89 2.89 0 002.128.919h4.6a.499.499 0 00.6-.502z"/></g></symbol><symbol id="phone-icon"><g clip-path="url(#clip0_2403_1829)" fill="#000"><path d="M17.9 9.4H9.4v1.2h8.5l-2.1 2.1.9.9 3.1-3.1a.75.75 0 000-.9l-3.1-3.1-.9.9 2.1 2zM8.1 19.4v-6.2a.65.65 0 00-.6-.6H3.1a1.22 1.22 0 001.2 1.2h2.5v5H3.1a1.789 1.789 0 01-1.9-1.7v-14a1.77 1.77 0 011.7-1.8h3.9v5H4.4a1.22 1.22 0 00-1.2 1.2h4.4a.65.65 0 00.6-.6V.6a.86.86 0 00-.7-.6H3.1A3 3 0 000 2.9v13.9a2.89 2.89 0 002.9 3.1h4.6a.5.5 0 00.6-.5z"/></g></symbol></svg>